# xmcd
#
# Track frame offsets:
#	150
#	9662
#	24098
#	38112
#	52731
#	64278
#	79746
#	90817
#	96422
#	102612
#	105655
#	115529
#	123782
#	135502
#	146328
#	159214
#	174013
#	183848
#
# Disc length: 2579 seconds
#
# Revision: 1
# Processed by: cddbd v1.5.2PL0 Copyright (c) Steve Scherf et al.
# Submitted via: audiograbber 1.83.01
#
DISCID=ca0a1112
DTITLE=leadbelly - masterworks
DYEAR=1900
DGENRE=
TTITLE0=midnight special
TTITLE1=the gallis pole
TTITLE2=dekalb blues
TTITLE3=john hardy
TTITLE4=goodnight irene
TTITLE5=the bourgeois blues
TTITLE6=pretty flower in your backyard
TTITLE7=borrow love and go
TTITLE8=big fat woman
TTITLE9=jule ann johnson
TTITLE10=be so glad when i get home
TTITLE11=old ship zion
TTITLE12=i don't want no more army life
TTITLE13=ella louise
TTITLE14=backwater blues
TTITLE15=rock island line
TTITLE16=mary and martha
TTITLE17=go down old hannah
EXTD=
EXTT0=
EXTT1=
EXTT2=
EXTT3=
EXTT4=
EXTT5=
EXTT6=
EXTT7=
EXTT8=
EXTT9=
EXTT10=
EXTT11=
EXTT12=
EXTT13=
EXTT14=
EXTT15=
EXTT16=
EXTT17=
PLAYORDER=
